<svg width="43" height="101" viewBox="0 0 43 101" fill="none" xmlns="http://www.w3.org/2000/svg">
<path opacity="0.5" d="M0.112293 52.8203C0.192341 52.7568 0.308595 52.7366 0.399125 52.7659C0.509666 52.7986 0.611001 52.827 0.706613 52.8538L0.753309 52.8669C0.989003 52.9332 1.19261 52.9899 1.39431 53.0677C4.58096 54.284 7.08975 56.3677 9.06425 59.4376C9.55184 60.1961 9.92952 60.9846 10.2303 61.7709C9.73702 59.126 9.62266 58.0956 9.53531 55.1362C9.53118 55.012 9.53118 54.8857 9.53118 54.7603C9.53118 54.4179 9.53118 54.0945 9.45336 53.7994C9.35997 53.4497 9.17224 53.101 8.99054 52.7635C8.9394 52.668 8.88827 52.5725 8.84602 52.4886C8.83141 52.4721 8.78408 52.4443 8.76566 52.4416C7.85432 52.3079 7.04844 51.9363 6.30134 51.3056C5.54851 50.667 4.92942 49.8852 4.46089 48.9814C2.77926 45.7422 1.93781 42.1618 1.9591 38.341C1.961 37.9724 2.0061 37.6136 2.05566 37.2233C2.07821 37.0485 2.10108 36.8697 2.12014 36.6845C2.13094 36.5829 2.19606 36.4925 2.2904 36.4486C2.38347 36.4053 2.49592 36.4083 2.58994 36.4629C2.6468 36.4971 2.6954 36.5249 2.73956 36.5496C2.825 36.5984 2.89012 36.6366 2.95174 36.6793C4.38624 37.667 5.65143 38.8966 6.71269 40.3332C8.44451 42.6812 9.45177 45.3361 9.72304 48.2568C9.75004 47.9312 9.77736 47.6056 9.80468 47.28L9.81421 47.162C9.92062 45.8856 10.0305 44.5656 10.1201 43.2676C10.1427 42.939 10.2084 42.6192 10.2719 42.3098C10.3945 41.7151 10.5105 41.1534 10.325 40.5648C10.2827 40.4317 10.2472 40.2978 10.2116 40.1642C10.1239 39.8331 9.70049 39.3232 9.05027 38.7657L9.02581 38.7447C8.78599 38.5494 7.55415 37.4668 6.85532 35.3254C6.14601 33.1499 6.19969 30.8767 6.23876 29.2168L6.23971 29.1725C6.29181 26.8908 6.54847 25.1714 7.07196 23.5966C7.13962 23.3952 7.21997 23.1966 7.3051 22.9879C7.34926 22.8792 7.39436 22.767 7.44074 22.6495C7.47886 22.55 7.57034 22.4777 7.67739 22.4606L7.7298 22.456C7.82255 22.456 7.90927 22.496 7.96804 22.565L8.4766 23.1603C10.9149 26.0169 12.1127 29.3672 12.0377 33.1184C12.0247 33.779 11.9733 34.4567 11.8821 35.1564C12.5018 33.102 13.2286 31.1021 14.0551 29.1783C14.0723 29.1362 14.0834 29.084 14.0847 29.0398L14.0904 28.7768C14.099 28.3972 14.1079 28.0045 14.091 27.6182C14.0885 27.5541 14.0453 27.4391 13.9554 27.3259C13.8277 27.1639 13.686 27.0055 13.5393 26.8407C13.2893 26.5612 13.031 26.2726 12.8265 25.943C12.1677 24.883 11.8583 23.6308 11.8532 22.0017C11.8443 20.084 12.1521 18.0659 12.823 15.6502C13.1895 14.3323 13.7429 12.6202 14.7733 11.068C14.8432 10.9637 14.9214 10.8654 15.0046 10.7614C15.0421 10.7153 15.0815 10.6662 15.1215 10.6134C15.1799 10.538 15.2606 10.4941 15.3908 10.4941C15.4947 10.5014 15.5875 10.5582 15.6392 10.6464C16.9327 12.8887 17.5769 15.2843 17.6074 17.97C17.6334 20.2094 17.2694 22.1363 16.8129 23.6592C17.9746 21.6206 19.2655 19.651 20.6647 17.7827L20.6968 17.7403C20.7286 17.6997 20.7419 17.6799 20.7397 17.6939C20.8277 17.0894 20.8887 16.6058 20.9309 16.1847C20.93 16.1783 20.9217 16.1429 20.8563 16.038C20.7638 15.8866 20.6625 15.7383 20.5548 15.5815C20.3388 15.266 20.1158 14.9395 19.9729 14.574C19.5415 13.4706 19.4447 12.2193 19.6775 10.7498C20.1886 7.49743 21.6812 4.56881 24.2396 1.79611C24.5029 1.51143 24.7938 1.25969 25.1016 0.993623L25.1868 0.919477C25.3072 0.814818 25.4307 0.707718 25.5556 0.594515C25.635 0.521895 25.7487 0.494739 25.8589 0.525862C25.9631 0.557595 26.0435 0.640589 26.0682 0.743723L26.1242 0.979283C26.1623 1.13551 26.1918 1.25878 26.2137 1.38266C26.5581 3.35684 26.533 5.47138 26.1365 7.84772C25.7433 10.2045 24.9597 12.2373 23.7574 14.0031C25.5603 11.9624 27.3141 10.2488 29.1469 8.73015C29.1552 8.71977 29.1672 8.68835 29.1682 8.68041C29.0249 7.49499 29.3292 6.37822 30.0992 5.26633C31.1103 3.80507 32.5152 2.69136 34.275 1.95661C35.328 1.51783 36.4191 1.12941 37.4874 0.74891C37.9991 0.566444 38.5108 0.384587 39.0378 0.18961C39.5673 -0.0126896 39.7938 -0.0486948 39.9167 0.0605411C40.0749 0.202121 40.0368 0.322952 39.9679 0.542644L39.9457 0.614348C39.2999 2.70387 38.4429 4.35644 37.3251 5.66636C35.2731 8.07351 32.8732 9.29647 29.9922 9.40448C29.8911 9.41028 29.8111 9.43713 29.7784 9.46154C29.3727 9.75324 29.0742 9.98667 28.8102 10.218C27.9754 10.9509 27.1533 11.7317 26.3491 12.554C27.5453 11.84 29.0074 11.5178 30.6541 11.5977C31.5553 11.6414 32.4498 11.7683 33.3148 11.891L33.3478 11.8959C33.6035 11.9319 33.8579 11.9676 34.1117 12.002C34.6676 12.0744 35.2279 12.1689 35.7228 12.2519C35.9233 12.2864 36.402 12.3911 36.5122 12.6141C36.5503 12.6904 36.5471 12.774 36.5039 12.85C36.4658 12.9162 36.4239 12.9784 36.3781 13.0352C34.9497 14.8156 33.3202 15.9882 31.3965 16.6195C29.051 17.3933 26.8967 17.3296 24.9609 16.4194C24.6649 16.2628 24.3078 16.1835 23.9 16.1835C23.5922 16.1835 23.3613 16.2302 23.2847 16.247C23.17 16.2653 23.0144 16.3269 22.9826 16.3666C21.7787 17.887 20.6362 19.5109 19.5692 21.2169C20.4707 20.3748 21.6463 19.8069 23.2479 19.4371C24.6515 19.1158 26.0867 19.0468 27.4742 18.9797L27.9389 18.9571C28.3741 18.9358 28.8092 18.9092 29.2574 18.8821L30.009 18.8375C30.1062 18.8375 30.1986 18.8827 30.2552 18.9577C30.3177 19.0386 30.3327 19.1436 30.2958 19.2378C30.2657 19.3166 30.2107 19.4554 30.1824 19.5018C28.719 21.8531 27.0005 23.4794 24.9295 24.4742C22.9048 25.4457 21.0755 25.7026 19.2302 25.2788C19.0168 25.2293 18.7693 25.2031 18.5136 25.2031C17.7287 25.2031 17.1814 25.4332 17.0664 25.6461C16.0512 27.6579 15.1453 29.7483 14.3639 31.8805C15.1834 30.7952 16.3295 29.9137 17.7805 29.2543C19.222 28.6007 20.7229 28.0033 22.1996 27.4153C22.8343 27.1632 23.4715 26.9103 24.1058 26.6515C24.2002 26.6119 24.3117 26.6201 24.3996 26.676C24.486 26.7312 24.5375 26.8233 24.5375 26.9225C24.5375 27.1129 22.4315 32.7276 19.3729 34.9401C18.1251 35.8426 16.5884 36.7711 14.6504 36.8148C14.0704 36.826 13.4707 36.9048 13.0177 37.3994C12.9484 37.4781 12.8566 37.5394 12.7566 37.5721C12.6019 37.6209 12.5593 37.7118 12.4831 38.0218C11.8554 40.5532 11.3983 43.1623 11.1169 45.8118C11.202 45.5429 11.3008 45.2714 11.4142 44.9965C12.0987 43.3289 13.2508 41.8698 15.0398 40.4043C15.962 39.6457 16.9276 38.9113 17.8615 38.2006L17.906 38.1671C18.3313 37.8433 18.7557 37.5208 19.1788 37.1943C19.2661 37.1269 19.3513 37.0573 19.4501 36.9762L19.714 36.7589C19.8065 36.6839 19.944 36.6683 20.052 36.7202C20.1629 36.7742 20.2292 36.8858 20.2207 37.0052C20.2076 37.1843 20.1972 37.3536 20.1873 37.5162L20.1822 37.5922C20.1613 37.927 20.1416 38.2428 20.1063 38.5546C19.7753 41.5909 18.8354 44.1259 17.2329 46.3042C16.2409 47.6508 14.8178 49.2966 12.5987 50.075C12.0587 50.2654 11.667 50.5538 11.2474 51.0713C10.8516 51.5558 10.7779 51.9985 10.7868 52.5557C10.8246 54.8896 10.9978 57.2049 11.303 59.4724C11.3745 58.8413 11.5257 58.1917 11.7579 57.5168C12.2385 56.1193 12.9875 54.7606 14.0481 53.3631C14.9636 52.1529 15.9162 50.9385 16.8374 49.7635L16.8987 49.6851C17.264 49.2197 17.629 48.7538 17.9844 48.298C18.0511 48.2043 18.1474 48.1707 18.203 48.1521C18.2817 48.1152 18.3758 48.1115 18.4593 48.1457C18.5413 48.1793 18.6042 48.2455 18.6318 48.3266L18.6426 48.3584C18.6578 48.4011 18.6699 48.4389 18.6763 48.4768C19.3116 52.1157 18.9218 55.376 17.4851 58.445C16.7834 59.9456 15.8422 61.6446 14.1828 62.8669C13.4252 63.425 12.8271 64.2079 12.4986 65.0712C12.4291 65.257 12.4316 65.3375 12.4396 65.3687C13.1419 68.163 14.0593 70.8582 15.1745 73.4091C14.8874 72.0647 14.9071 70.6526 15.2349 69.1895C15.7002 67.1158 16.5001 65.1062 17.2135 63.3853L17.4273 62.87C17.7618 62.0635 18.0985 61.2506 18.4463 60.4082C18.4904 60.3005 18.5969 60.2269 18.7388 60.2202C18.8507 60.2202 18.9536 60.2816 19.0069 60.381L19.1191 60.5836C19.1683 60.6724 19.2144 60.7551 19.2537 60.8406C20.6889 63.951 21.1736 67.1396 20.6937 70.3178C20.3506 72.5904 19.7693 74.2177 18.8087 75.5944C18.3116 76.306 17.8393 77.0987 17.7535 78.0736C17.7332 78.3043 17.7427 78.4632 17.8497 78.6442C19.0613 80.6821 20.4195 82.6054 21.9071 84.3922C21.9014 84.3824 21.8959 84.3727 21.8902 84.3629C20.8201 82.4842 20.7877 80.453 20.8969 78.7134C20.9913 77.2223 21.1692 75.7332 21.3404 74.2937L21.3502 74.2103C21.4192 73.6337 21.4878 73.0573 21.5503 72.4797C21.5866 72.1523 21.6269 71.8249 21.6685 71.4926L21.7235 71.0428C21.7355 70.9433 21.7987 70.8573 21.8896 70.814C22.0586 70.7291 22.3321 70.86 22.6275 71.1957C24.6576 73.5021 25.9174 76.1086 26.3722 78.9429C26.8439 81.8816 26.5882 84.3964 25.5896 86.6312C25.5629 86.6907 25.5635 86.8122 25.5638 86.8527L25.6175 88.1385C25.6255 88.231 25.6763 88.3354 25.7182 88.3741C27.7454 90.2494 29.9772 91.8797 32.3723 93.2366C31.2386 92.2523 30.4235 90.968 29.8953 89.3404C29.3098 87.5365 29.0094 85.6591 28.7181 83.8387L28.6927 83.6767C28.5894 83.0371 28.4817 82.3988 28.3718 81.7464L28.2476 81.0089C28.2299 80.9015 28.274 80.7941 28.3607 80.7297C28.4468 80.6638 28.5713 80.6479 28.6704 80.6888L28.7787 80.7319C28.8944 80.7773 28.9951 80.8179 29.09 80.8646C33.6178 83.0368 36.5983 88.1032 36.1771 92.9108C36.111 93.6638 36.1828 94.3711 36.3969 95.0717C36.4169 95.1354 36.4811 95.2047 36.5071 95.2163C38.6576 96.0874 40.7023 96.723 42.7597 97.1593C42.8655 97.1828 42.9493 97.2555 42.9836 97.3534C43.0183 97.452 42.9973 97.5591 42.9268 97.6396C42.7032 97.8941 42.5084 98.1678 42.3483 98.4543C42.2826 98.5715 42.126 98.6316 42.0088 98.6023C40.3326 98.2349 38.7002 97.7592 37.1554 97.1874C37.0306 97.1392 36.9353 97.1163 36.846 97.1304C36.5024 97.1743 36.1393 97.242 35.7362 97.3382C35.653 97.3577 35.584 97.3946 35.5828 97.3913C34.7022 99.0774 33.189 100.151 30.9549 100.674C30.4689 100.786 29.9677 100.869 29.4652 100.919C28.9392 100.973 28.3525 101 27.7219 101C26.8484 101 26.2255 100.948 26.2179 100.948C24.2815 100.739 22.6278 100.321 21.1631 99.6675C20.5621 99.3999 19.8773 99.0396 19.3509 98.396C19.2503 98.2728 19.2671 98.0949 19.3894 97.9914C20.8772 96.7303 22.3921 95.814 24.0213 95.1904C26.4351 94.2689 28.6339 94.0193 30.7891 94.4175C31.1112 94.4776 31.4257 94.5533 31.7313 94.6402C29.7152 93.4826 27.7848 92.122 25.9618 90.5719C25.9269 90.5414 25.8694 90.5146 25.8246 90.5069C25.5263 90.4593 25.1302 90.4008 24.7249 90.3727C24.6874 90.3727 24.6398 90.3901 24.6344 90.3919C23.536 91.5728 22.1208 92.1467 20.308 92.1467C20.2156 92.1467 20.1228 92.1449 20.0304 92.1418C18.0594 92.0808 16.0779 91.5606 14.1399 90.5948C12.7315 89.8891 11.2633 89.0674 10.0728 87.842C9.80881 87.5695 9.57312 87.2613 9.36506 86.9894L9.34473 86.9629C9.25261 86.843 9.15954 86.7221 9.06393 86.6028C9.01183 86.5385 8.98991 86.4555 9.00357 86.3718C9.01818 86.2913 9.06678 86.2196 9.14969 86.1677C9.17065 86.1567 9.67476 85.8971 10.135 85.7259C13.2168 84.582 16.3282 84.4648 19.2963 85.3835C20.268 85.6835 21.1825 86.1338 22.0729 86.7563C20.4262 84.9176 18.9015 82.9019 17.5172 80.7331C17.5022 80.7102 17.4629 80.6483 17.4501 80.637C17.3291 80.5628 17.2052 80.4926 17.0817 80.4234C16.8603 80.2986 16.6309 80.1695 16.4156 80.0157C16.2339 79.8854 16.1827 79.8821 15.9991 79.9956C15.7393 80.1576 15.4372 80.2418 15.1739 80.308C13.6333 80.687 12.0803 80.4981 10.3625 79.7234C8.79328 79.0167 7.58686 77.8997 6.51638 76.7981C4.95927 75.1913 3.94185 73.7417 3.31418 72.2356C3.18235 71.9195 3.08834 71.5927 2.9905 71.2509C2.95016 71.1075 2.90886 70.9641 2.86502 70.8231C2.81706 70.6718 2.90092 70.5116 3.05656 70.4588L3.18553 70.4493C3.82051 70.4493 9.48481 70.5387 12.7979 73.6266C13.5186 74.2985 14.1647 75.0125 14.7546 75.7943C13.444 73.1281 12.3325 70.3181 11.4368 67.4014L11.4237 67.3587C11.4129 67.323 11.3967 67.269 11.3859 67.2543L10.5194 66.1113C10.487 66.0656 10.4832 66.0656 10.4323 66.0656C10.4098 66.0656 10.385 66.0671 10.3568 66.0686L10.1716 66.0793C9.52674 66.1177 9.14715 66.1122 8.8349 66.0653C7.60116 65.8782 6.48748 65.2814 5.43066 64.2403C2.95905 61.8054 1.25773 58.7675 0.229822 54.954C0.119598 54.5455 0.0887846 54.1329 0.0557492 53.6954C0.0411374 53.497 0.0249406 53.2926 0.00143461 53.0814C-0.00841248 52.9801 0.0328814 52.8834 0.112293 52.8203Z" fill="url(#paint0_linear_393_305)"/>
<defs>
<linearGradient id="paint0_linear_393_305" x1="21" y1="-3.38961e-09" x2="21.5" y2="80.8" gradientUnits="userSpaceOnUse">
<stop stop-color="#939393"/>
<stop offset="1" stop-color="#383838"/>
</linearGradient>
</defs>
</svg>
