<svg width="43" height="101" viewBox="0 0 43 101" fill="none" xmlns="http://www.w3.org/2000/svg">
<path opacity="0.5" d="M42.8877 52.8203C42.8077 52.7568 42.6914 52.7366 42.6009 52.7659C42.4903 52.7986 42.389 52.827 42.2934 52.8538L42.2467 52.8669C42.011 52.9332 41.8074 52.9899 41.6057 53.0677C38.419 54.284 35.9103 56.3677 33.9358 59.4376C33.4482 60.1961 33.0705 60.9846 32.7697 61.7709C33.263 59.126 33.3773 58.0956 33.4647 55.1362C33.4688 55.012 33.4688 54.8857 33.4688 54.7603C33.4688 54.4179 33.4688 54.0945 33.5466 53.7994C33.64 53.4497 33.8278 53.101 34.0095 52.7635C34.0606 52.668 34.1117 52.5725 34.154 52.4886C34.1686 52.4721 34.2159 52.4443 34.2343 52.4416C35.1457 52.3079 35.9516 51.9363 36.6987 51.3056C37.4515 50.667 38.0706 49.8852 38.5391 48.9814C40.2207 45.7422 41.0622 42.1618 41.0409 38.341C41.039 37.9724 40.9939 37.6136 40.9443 37.2233C40.9218 37.0485 40.8989 36.8697 40.8799 36.6845C40.8691 36.5829 40.8039 36.4925 40.7096 36.4486C40.6165 36.4053 40.5041 36.4083 40.4101 36.4629C40.3532 36.4971 40.3046 36.5249 40.2604 36.5496C40.175 36.5984 40.1099 36.6366 40.0483 36.6793C38.6138 37.667 37.3486 38.8966 36.2873 40.3332C34.5555 42.6812 33.5482 45.3361 33.277 48.2568C33.25 47.9312 33.2226 47.6056 33.1953 47.28L33.1858 47.162C33.0794 45.8856 32.9695 44.5656 32.8799 43.2676C32.8573 42.939 32.7916 42.6192 32.7281 42.3098C32.6055 41.7151 32.4895 41.1534 32.675 40.5648C32.7173 40.4317 32.7528 40.2978 32.7884 40.1642C32.8761 39.8331 33.2995 39.3232 33.9497 38.7657L33.9742 38.7447C34.214 38.5494 35.4459 37.4668 36.1447 35.3254C36.854 33.1499 36.8003 30.8767 36.7612 29.2168L36.7603 29.1725C36.7082 26.8908 36.4515 25.1714 35.928 23.5966C35.8604 23.3952 35.78 23.1966 35.6949 22.9879C35.6507 22.8792 35.6056 22.767 35.5593 22.6495C35.5211 22.55 35.4297 22.4777 35.3226 22.4606L35.2702 22.456C35.1774 22.456 35.0907 22.496 35.032 22.565L34.5234 23.1603C32.0851 26.0169 30.8873 29.3672 30.9623 33.1184C30.9753 33.779 31.0267 34.4567 31.1179 35.1564C30.4982 33.102 29.7714 31.1021 28.9449 29.1783C28.9277 29.1362 28.9166 29.084 28.9153 29.0398L28.9096 28.7768C28.901 28.3972 28.8921 28.0045 28.909 27.6182C28.9115 27.5541 28.9547 27.4391 29.0446 27.3259C29.1723 27.1639 29.314 27.0055 29.4607 26.8407C29.7107 26.5612 29.969 26.2726 30.1735 25.943C30.8323 24.883 31.1417 23.6308 31.1468 22.0017C31.1557 20.084 30.8479 18.0659 30.177 15.6502C29.8105 14.3323 29.2571 12.6202 28.2267 11.068C28.1568 10.9637 28.0786 10.8654 27.9954 10.7614C27.9579 10.7153 27.9185 10.6662 27.8785 10.6134C27.8201 10.538 27.7394 10.4941 27.6092 10.4941C27.5053 10.5014 27.4125 10.5582 27.3608 10.6464C26.0673 12.8887 25.4231 15.2843 25.3926 17.97C25.3666 20.2094 25.7306 22.1363 26.1871 23.6592C25.0254 21.6206 23.7345 19.651 22.3353 17.7827L22.3032 17.7403C22.2714 17.6997 22.2581 17.6799 22.2603 17.6939C22.1723 17.0894 22.1113 16.6058 22.0691 16.1847C22.07 16.1783 22.0783 16.1429 22.1437 16.038C22.2362 15.8866 22.3375 15.7383 22.4452 15.5815C22.6612 15.266 22.8842 14.9395 23.0271 14.574C23.4585 13.4706 23.5553 12.2193 23.3225 10.7498C22.8114 7.49743 21.3188 4.56881 18.7604 1.79611C18.4971 1.51143 18.2062 1.25969 17.8984 0.993623L17.8132 0.919477C17.6928 0.814818 17.5693 0.707718 17.4444 0.594515C17.365 0.521895 17.2513 0.494739 17.1411 0.525862C17.0369 0.557595 16.9565 0.640589 16.9318 0.743723L16.8758 0.979283C16.8377 1.13551 16.8082 1.25878 16.7863 1.38266C16.4419 3.35684 16.467 5.47138 16.8635 7.84772C17.2567 10.2045 18.0403 12.2373 19.2426 14.0031C17.4397 11.9624 15.6859 10.2488 13.8531 8.73015C13.8448 8.71977 13.8328 8.68835 13.8318 8.68041C13.9751 7.49499 13.6708 6.37822 12.9008 5.26633C11.8897 3.80507 10.4848 2.69136 8.725 1.95661C7.672 1.51783 6.58087 1.12941 5.51262 0.74891C5.00089 0.566444 4.48916 0.384587 3.96218 0.18961C3.43266 -0.0126896 3.20618 -0.0486948 3.08325 0.0605411C2.92506 0.202121 2.96319 0.322952 3.03212 0.542644L3.05434 0.614348C3.70012 2.70387 4.55714 4.35644 5.67494 5.66636C7.72694 8.07351 10.1268 9.29647 13.0078 9.40448C13.1089 9.41028 13.1889 9.43713 13.2216 9.46154C13.6273 9.75324 13.9258 9.98667 14.1898 10.218C15.0246 10.9509 15.8467 11.7317 16.6509 12.554C15.4547 11.84 13.9926 11.5178 12.3459 11.5977C11.4447 11.6414 10.5502 11.7683 9.68524 11.891L9.65221 11.8959C9.3965 11.9319 9.14206 11.9676 8.88826 12.002C8.33238 12.0744 7.77205 12.1689 7.27716 12.2519C7.07672 12.2864 6.59803 12.3911 6.48781 12.6141C6.44969 12.6904 6.45287 12.774 6.49607 12.85C6.53418 12.9162 6.57611 12.9784 6.62185 13.0352C8.05032 14.8156 9.67984 15.9882 11.6035 16.6195C13.949 17.3933 16.1033 17.3296 18.0391 16.4194C18.3351 16.2628 18.6922 16.1835 19.1 16.1835C19.4078 16.1835 19.6387 16.2302 19.7153 16.247C19.83 16.2653 19.9856 16.3269 20.0174 16.3666C21.2213 17.887 22.3638 19.5109 23.4308 21.2169C22.5293 20.3748 21.3537 19.8069 19.7521 19.4371C18.3485 19.1158 16.9133 19.0468 15.5258 18.9797L15.0611 18.9571C14.6259 18.9358 14.1908 18.9092 13.7426 18.8821L12.991 18.8375C12.8938 18.8375 12.8014 18.8827 12.7448 18.9577C12.6823 19.0386 12.6673 19.1436 12.7042 19.2378C12.7343 19.3166 12.7893 19.4554 12.8176 19.5018C14.281 21.8531 15.9995 23.4794 18.0705 24.4742C20.0952 25.4457 21.9245 25.7026 23.7698 25.2788C23.9832 25.2293 24.2307 25.2031 24.4864 25.2031C25.2713 25.2031 25.8186 25.4332 25.9336 25.6461C26.9488 27.6579 27.8547 29.7483 28.6361 31.8805C27.8166 30.7952 26.6705 29.9137 25.2195 29.2543C23.778 28.6007 22.2771 28.0033 20.8004 27.4153C20.1657 27.1632 19.5285 26.9103 18.8942 26.6515C18.7998 26.6119 18.6883 26.6201 18.6004 26.676C18.514 26.7312 18.4625 26.8233 18.4625 26.9225C18.4625 27.1129 20.5685 32.7276 23.6271 34.9401C24.8749 35.8426 26.4116 36.7711 28.3496 36.8148C28.9296 36.826 29.5293 36.9048 29.9823 37.3994C30.0516 37.4781 30.1434 37.5394 30.2434 37.5721C30.3981 37.6209 30.4407 37.7118 30.5169 38.0218C31.1446 40.5532 31.6017 43.1623 31.8831 45.8118C31.798 45.5429 31.6992 45.2714 31.5858 44.9965C30.9013 43.3289 29.7492 41.8698 27.9602 40.4043C27.038 39.6457 26.0724 38.9113 25.1385 38.2006L25.094 38.1671C24.6687 37.8433 24.2443 37.5208 23.8212 37.1943C23.7339 37.1269 23.6487 37.0573 23.5499 36.9762L23.286 36.7589C23.1935 36.6839 23.056 36.6683 22.948 36.7202C22.8371 36.7742 22.7708 36.8858 22.7793 37.0052C22.7924 37.1843 22.8028 37.3536 22.8127 37.5162L22.8178 37.5922C22.8387 37.927 22.8584 38.2428 22.8937 38.5546C23.2247 41.5909 24.1646 44.1259 25.7671 46.3042C26.7591 47.6508 28.1822 49.2966 30.4013 50.075C30.9413 50.2654 31.333 50.5538 31.7526 51.0713C32.1484 51.5558 32.2221 51.9985 32.2132 52.5557C32.1754 54.8896 32.0022 57.2049 31.697 59.4724C31.6255 58.8413 31.4743 58.1917 31.2421 57.5168C30.7615 56.1193 30.0125 54.7606 28.9519 53.3631C28.0364 52.1529 27.0838 50.9385 26.1626 49.7635L26.1013 49.6851C25.736 49.2197 25.371 48.7538 25.0156 48.298C24.9489 48.2043 24.8526 48.1707 24.797 48.1521C24.7183 48.1152 24.6242 48.1115 24.5407 48.1457C24.4587 48.1793 24.3958 48.2455 24.3682 48.3266L24.3574 48.3584C24.3422 48.4011 24.3301 48.4389 24.3237 48.4768C23.6884 52.1157 24.0782 55.376 25.5149 58.445C26.2166 59.9456 27.1578 61.6446 28.8172 62.8669C29.5748 63.425 30.1729 64.2079 30.5014 65.0712C30.5709 65.257 30.5684 65.3375 30.5604 65.3687C29.8581 68.163 28.9407 70.8582 27.8255 73.4091C28.1126 72.0647 28.0929 70.6526 27.7651 69.1895C27.2998 67.1158 26.4999 65.1062 25.7865 63.3853L25.5727 62.87C25.2382 62.0635 24.9015 61.2506 24.5537 60.4082C24.5096 60.3005 24.4031 60.2269 24.2612 60.2202C24.1493 60.2202 24.0464 60.2816 23.9931 60.381L23.8809 60.5836C23.8317 60.6724 23.7856 60.7551 23.7463 60.8406C22.3111 63.951 21.8264 67.1396 22.3063 70.3178C22.6494 72.5904 23.2307 74.2177 24.1913 75.5944C24.6884 76.306 25.1607 77.0987 25.2465 78.0736C25.2668 78.3043 25.2573 78.4632 25.1503 78.6442C23.9387 80.6821 22.5805 82.6054 21.0929 84.3922C21.0986 84.3824 21.1041 84.3727 21.1098 84.3629C22.1799 82.4842 22.2123 80.453 22.1031 78.7134C22.0087 77.2223 21.8308 75.7332 21.6596 74.2937L21.6498 74.2103C21.5808 73.6337 21.5122 73.0573 21.4497 72.4797C21.4134 72.1523 21.3731 71.8249 21.3315 71.4926L21.2765 71.0428C21.2645 70.9433 21.2013 70.8573 21.1104 70.814C20.9414 70.7291 20.6679 70.86 20.3725 71.1957C18.3424 73.5021 17.0826 76.1086 16.6278 78.9429C16.1561 81.8816 16.4118 84.3964 17.4104 86.6312C17.4371 86.6907 17.4365 86.8122 17.4362 86.8527L17.3825 88.1385C17.3745 88.231 17.3237 88.3354 17.2818 88.3741C15.2546 90.2494 13.0228 91.8797 10.6277 93.2366C11.7614 92.2523 12.5765 90.968 13.1047 89.3404C13.6902 87.5365 13.9906 85.6591 14.2819 83.8387L14.3073 83.6767C14.4106 83.0371 14.5183 82.3988 14.6282 81.7464L14.7524 81.0089C14.7701 80.9015 14.726 80.7941 14.6393 80.7297C14.5532 80.6638 14.4287 80.6479 14.3296 80.6888L14.2213 80.7319C14.1056 80.7773 14.0049 80.8179 13.91 80.8646C9.38221 83.0368 6.40172 88.1032 6.82292 92.9108C6.88899 93.6638 6.8172 94.3711 6.6031 95.0717C6.58309 95.1354 6.51893 95.2047 6.49289 95.2163C4.34241 96.0874 2.29771 96.723 0.240307 97.1593C0.13453 97.1828 0.050666 97.2555 0.01636 97.3534C-0.0182636 97.452 0.0027063 97.5591 0.0732241 97.6396C0.296848 97.8941 0.491561 98.1678 0.651656 98.4543C0.717409 98.5715 0.874009 98.6316 0.991222 98.6023C2.66745 98.2349 4.29984 97.7592 5.84456 97.1874C5.9694 97.1392 6.06469 97.1163 6.15395 97.1304C6.49765 97.1743 6.86072 97.242 7.26382 97.3382C7.34704 97.3577 7.41597 97.3946 7.41724 97.3913C8.29776 99.0774 9.81104 100.151 12.0451 100.674C12.5311 100.786 13.0323 100.869 13.5348 100.919C14.0608 100.973 14.6475 101 15.2781 101C16.1516 101 16.7745 100.948 16.7821 100.948C18.7185 100.739 20.3722 100.321 21.8369 99.6675C22.4379 99.3999 23.1227 99.0396 23.6491 98.396C23.7497 98.2728 23.7329 98.0949 23.6106 97.9914C22.1228 96.7303 20.6079 95.814 18.9787 95.1904C16.5649 94.2689 14.3661 94.0193 12.2109 94.4175C11.8888 94.4776 11.5743 94.5533 11.2687 94.6402C13.2848 93.4826 15.2152 92.122 17.0382 90.5719C17.0731 90.5414 17.1306 90.5146 17.1754 90.5069C17.4737 90.4593 17.8698 90.4008 18.2751 90.3727C18.3126 90.3727 18.3602 90.3901 18.3656 90.3919C19.464 91.5728 20.8792 92.1467 22.692 92.1467C22.7844 92.1467 22.8772 92.1449 22.9696 92.1418C24.9406 92.0808 26.9221 91.5606 28.8601 90.5948C30.2685 89.8891 31.7367 89.0674 32.9272 87.842C33.1912 87.5695 33.4269 87.2613 33.6349 86.9894L33.6553 86.9629C33.7474 86.843 33.8405 86.7221 33.9361 86.6028C33.9882 86.5385 34.0101 86.4555 33.9964 86.3718C33.9818 86.2913 33.9332 86.2196 33.8503 86.1677C33.8293 86.1567 33.3252 85.8971 32.865 85.7259C29.7832 84.582 26.6718 84.4648 23.7037 85.3835C22.732 85.6835 21.8175 86.1338 20.9271 86.7563C22.5738 84.9176 24.0985 82.9019 25.4828 80.7331C25.4978 80.7102 25.5371 80.6483 25.5499 80.637C25.6709 80.5628 25.7948 80.4926 25.9183 80.4234C26.1397 80.2986 26.3691 80.1695 26.5844 80.0157C26.7661 79.8854 26.8173 79.8821 27.0009 79.9956C27.2607 80.1576 27.5628 80.2418 27.8261 80.308C29.3667 80.687 30.9197 80.4981 32.6375 79.7234C34.2067 79.0167 35.4131 77.8997 36.4836 76.7981C38.0407 75.1913 39.0582 73.7417 39.6858 72.2356C39.8176 71.9195 39.9117 71.5927 40.0095 71.2509C40.0498 71.1075 40.0911 70.9641 40.135 70.8231C40.1829 70.6718 40.0991 70.5116 39.9434 70.4588L39.8145 70.4493C39.1795 70.4493 33.5152 70.5387 30.2021 73.6266C29.4814 74.2985 28.8353 75.0125 28.2454 75.7943C29.556 73.1281 30.6675 70.3181 31.5632 67.4014L31.5763 67.3587C31.5871 67.323 31.6033 67.269 31.6141 67.2543L32.4806 66.1113C32.513 66.0656 32.5168 66.0656 32.5677 66.0656C32.5902 66.0656 32.615 66.0671 32.6432 66.0686L32.8284 66.0793C33.4733 66.1177 33.8529 66.1122 34.1651 66.0653C35.3988 65.8782 36.5125 65.2814 37.5693 64.2403C40.041 61.8054 41.7423 58.7675 42.7702 54.954C42.8804 54.5455 42.9112 54.1329 42.9443 53.6954C42.9589 53.497 42.9751 53.2926 42.9986 53.0814C43.0084 52.9801 42.9671 52.8834 42.8877 52.8203Z" fill="url(#paint0_linear_393_304)"/>
<defs>
<linearGradient id="paint0_linear_393_304" x1="22" y1="-3.38961e-09" x2="21.5" y2="80.8" gradientUnits="userSpaceOnUse">
<stop stop-color="#939393"/>
<stop offset="1" stop-color="#383838"/>
</linearGradient>
</defs>
</svg>
